<svg width="492" height="491" viewBox="0 0 492 491" fill="none" xmlns="http://www.w3.org/2000/svg">
<path d="M350.373 116.048H24.445C10.942 116.048 0 126.988 0 140.492V466.42C0 479.923 10.942 490.865 24.445 490.865H350.373C363.876 490.865 374.817 479.923 374.817 466.42V140.492C374.817 126.988 363.876 116.048 350.373 116.048ZM325.928 441.975H48.889V164.936H325.928V441.975Z" fill="white"></path>
<path d="M486.695 411.913H460.182V126.63H486.695C488.653 126.63 490.419 125.452 491.167 123.639C491.923 121.825 491.509 119.747 490.117 118.356L447.315 75.554C445.421 73.66 442.35 73.66 440.457 75.554L397.654 118.356C396.262 119.748 395.848 121.825 396.604 123.639C397.353 125.452 399.119 126.63 401.077 126.63H427.59V411.913H401.077C399.119 411.913 397.353 413.09 396.604 414.904C395.849 416.719 396.262 418.797 397.654 420.189L440.457 462.991C442.35 464.885 445.422 464.885 447.315 462.991L490.117 420.189C491.51 418.797 491.924 416.72 491.167 414.904C490.419 413.09 488.654 411.913 486.695 411.913Z" fill="white"></path>
<path d="M70.676 94.563C72.068 95.955 74.145 96.369 75.96 95.613C77.774 94.866 78.952 93.099 78.952 91.141V64.628H364.235V91.141C364.235 93.099 365.412 94.866 367.226 95.613C369.04 96.369 371.117 95.955 372.51 94.563L415.312 51.761C417.206 49.866 417.206 46.794 415.312 44.901L372.51 2.10001C371.117 0.707013 369.041 0.293013 367.226 1.04901C365.412 1.79701 364.235 3.56301 364.235 5.52101V32.036H78.952V5.52101C78.952 3.56401 77.775 1.79701 75.96 1.04901C74.146 0.293013 72.068 0.707013 70.676 2.10001L27.875 44.901C25.981 46.794 25.981 49.866 27.875 51.761L70.676 94.563Z" fill="white"></path>
</svg>
